<?xml version="1.0" standalone="no"?>
<!DOCTYPE svg PUBLIC "-//W3C//DTD SVG 20010904//EN"
 "http://www.w3.org/TR/2001/REC-SVG-20010904/DTD/svg10.dtd">
<svg version="1.0" xmlns="http://www.w3.org/2000/svg"
 width="300.000000pt" height="163.000000pt" viewBox="0 0 300.000000 163.000000"
 preserveAspectRatio="xMidYMid meet">
<metadata>
Created by potrace 1.10, written by Peter Selinger 2001-2011
</metadata>
<g transform="translate(0.000000,163.000000) scale(0.100000,-0.100000)"
fill="#000000" stroke="none">
<path d="M708 1263 c7 -3 16 -2 19 1 4 3 -2 6 -13 5 -11 0 -14 -3 -6 -6z"/>
<path d="M673 1244 c-10 -26 11 -48 43 -49 22 0 29 -5 29 -20 0 -11 4 -26 8
-32 6 -9 2 -13 -12 -13 -32 0 -51 11 -51 30 0 13 -6 16 -27 12 -18 -3 -30 1
-40 13 -13 19 -15 16 -13 -22 1 -5 9 -7 19 -5 10 1 24 -4 31 -13 14 -17 7 -19
-36 -6 -24 7 -31 6 -31 -5 0 -11 22 -14 96 -15 l96 -2 -90 -8 c-49 -5 -98 -14
-108 -19 -15 -9 -17 -6 -15 22 1 18 6 40 12 48 10 13 9 13 -7 1 -14 -11 -17
-27 -15 -92 l2 -78 31 -4 30 -4 -31 -1 c-30 -2 -31 -4 -37 -59 -4 -32 -9 -67
-13 -79 -5 -20 -1 -21 108 -27 174 -10 398 -9 398 3 0 6 -4 10 -10 10 -5 0
-10 7 -10 15 0 12 -16 15 -85 15 -69 0 -85 3 -85 15 0 12 16 15 85 15 l85 0 0
34 c0 28 -4 35 -22 39 -17 3 -15 5 9 6 17 0 38 3 46 7 11 4 16 -7 21 -43 7
-54 38 -113 60 -113 7 0 39 11 70 25 32 14 61 23 66 20 5 -3 14 -30 21 -61 11
-50 11 -56 -6 -72 -15 -13 -17 -13 -9 -2 5 9 1 7 -8 -3 -10 -11 -25 -17 -33
-13 -11 4 -14 2 -9 -6 5 -7 0 -9 -14 -6 -12 4 -25 1 -29 -4 -4 -7 -1 -8 7 -3
9 5 11 4 6 -4 -4 -7 -13 -10 -19 -8 -6 2 -22 -9 -34 -24 -30 -35 -31 -118 -3
-189 22 -56 20 -65 -25 -102 -25 -22 -43 -26 -115 -30 -47 -2 -94 -9 -105 -16
-15 -9 87 -11 445 -11 256 0 485 4 510 8 44 7 43 7 -34 14 -43 4 -94 7 -113 7
-25 0 -42 9 -68 35 -19 19 -35 37 -35 39 0 3 9 28 20 56 28 71 27 154 -2 189
-13 14 -30 26 -38 26 -8 0 -14 5 -13 11 1 8 -6 10 -19 6 -13 -3 -19 -1 -15 5
5 7 0 9 -13 6 -28 -7 -60 24 -59 56 1 41 25 96 40 94 8 -1 39 -11 69 -22 30
-12 60 -21 67 -21 16 0 43 52 58 110 6 25 14 44 18 43 4 -2 26 -3 50 -3 23 0
37 -4 30 -8 -7 -4 -13 -39 -14 -87 l-2 -80 74 -3 c86 -4 473 10 447 15 -16 4
-18 20 -18 153 0 109 3 150 13 154 6 3 -5 4 -25 1 -44 -7 -47 -1 -15 33 l22
24 -22 -6 c-26 -8 -63 1 -63 14 0 5 8 7 18 3 13 -4 13 -2 -3 9 -22 17 -57 20
-48 5 4 -6 -7 -8 -30 -4 -21 3 -37 2 -37 -2 0 -3 -13 -8 -30 -9 -32 -2 -40 14
-18 36 23 23 1 12 -26 -13 -40 -37 -75 -43 -97 -17 -20 25 -39 29 -39 8 0 -8
-10 -17 -22 -19 -19 -4 -18 -5 5 -6 36 -1 34 -30 -3 -48 -23 -12 -20 -13 35
-14 l60 -2 -45 -8 c-66 -11 -109 -11 -90 1 13 8 12 10 -2 10 -10 0 -18 6 -19
13 -1 29 -18 -32 -18 -69 -1 -27 5 -46 16 -55 18 -16 22 -14 42 13 12 17 15
18 30 4 9 -8 32 -16 51 -19 l35 -4 -37 -1 c-20 -1 -39 -8 -41 -14 -3 -7 -6 -2
-7 12 -2 24 -3 23 -9 -4 -3 -16 -12 -31 -19 -32 -7 -1 -8 0 -2 3 5 2 10 14 10
26 0 13 -3 17 -8 10 -5 -7 -29 -9 -74 -6 -37 3 -65 9 -63 14 14 21 -68 30 -89
9 -13 -13 -119 -13 -111 0 4 6 -7 10 -27 10 -31 -1 -32 -1 -14 -15 11 -8 16
-18 12 -22 -4 -5 -18 4 -31 19 -13 15 -26 24 -29 21 -3 -4 -6 6 -6 20 0 17 5
27 15 27 8 0 15 9 15 20 0 11 -5 20 -11 20 -7 0 -9 9 -5 24 4 16 2 24 -7 23
-46 -1 -68 4 -61 16 5 8 3 8 -9 -2 -11 -9 -15 -21 -11 -37 4 -15 2 -24 -5 -24
-6 0 -11 -9 -11 -20 0 -11 7 -20 15 -20 25 0 17 -41 -12 -64 -15 -11 -29 -20
-30 -18 -2 1 -19 -4 -38 -13 -22 -8 -33 -10 -29 -3 4 7 3 8 -4 4 -6 -4 -8 -14
-5 -23 4 -11 3 -14 -5 -9 -7 4 -12 1 -12 -8 0 -8 -8 -20 -17 -25 -10 -5 -21
-11 -24 -13 -11 -5 -49 34 -49 49 0 20 62 43 110 41 22 -1 43 2 47 5 3 4 -16
7 -43 7 -28 0 -54 4 -60 9 -13 12 -86 22 -79 10 4 -5 -4 -9 -17 -9 -19 0 -20
-2 -8 -11 11 -7 1 -9 -37 -7 -28 2 -49 0 -46 -4 2 -5 -3 -8 -11 -8 -10 0 -13
6 -9 16 4 11 15 15 34 12 27 -4 29 -2 29 31 l0 36 -85 -3 c-81 -3 -85 -3 -85
18 0 21 4 21 85 18 60 -2 86 1 89 9 3 7 1 15 -4 18 -6 4 -10 1 -10 -4 0 -6
-22 -11 -51 -11 -31 0 -48 4 -44 10 4 6 10 8 14 6 4 -3 12 3 18 14 10 15 8 19
-19 24 -21 4 -28 10 -25 20 3 8 -2 20 -11 28 -15 11 -16 11 -4 -3 11 -14 9
-17 -13 -21 -16 -4 -25 -1 -25 7 0 9 -8 11 -22 7 -21 -5 -21 -5 3 -15 13 -5
32 -10 43 -11 24 -1 41 -28 33 -50 -9 -24 -53 -17 -50 8 1 12 -2 15 -9 8 -10
-10 -58 6 -58 20 0 4 -7 14 -16 22 -14 15 -14 16 2 16 16 0 15 2 -4 20 -20 19
-58 18 -46 -1 3 -5 -2 -9 -11 -9 -19 0 -47 25 -38 34 4 3 3 6 -1 6 -3 0 -9 -7
-13 -16z m1528 -80 c41 -21 35 -48 -11 -52 -36 -4 -60 16 -60 50 0 23 30 24
71 2z m-1401 -22 c-7 -3 -19 3 -28 13 -16 15 -15 16 12 4 15 -7 23 -15 16 -17z
m1238 16 c21 -21 14 -35 -18 -30 -33 5 -45 16 -35 32 8 14 38 13 53 -2z m81
-6 c5 -10 6 -24 2 -31 -10 -16 -61 -4 -61 16 0 8 5 11 12 7 8 -5 9 -2 5 9 -9
24 29 23 42 -1z m-142 -18 c2 -6 -10 -8 -32 -6 -19 2 -35 8 -35 14 0 13 63 6
67 -8z m-1127 -154 c0 -127 -2 -150 -15 -150 -13 0 -15 23 -15 150 0 127 2
150 15 150 13 0 15 -23 15 -150z m1180 -15 c0 -148 -1 -155 -20 -155 -19 0
-20 7 -20 155 0 148 1 155 20 155 19 0 20 -7 20 -155z m162 135 c80 0 89 -2
86 -17 -2 -11 -14 -19 -30 -21 l-27 -3 21 -21 c25 -25 11 -43 -26 -34 -27 7
-35 29 -15 42 22 13 -16 24 -88 24 -68 0 -73 2 -73 21 0 19 4 21 31 15 17 -3
72 -6 121 -6z m-1454 -27 c-21 -2 -55 -2 -75 0 -21 2 -4 4 37 4 41 0 58 -2 38
-4z m1436 -35 c17 -27 -4 -41 -42 -27 -35 12 -38 19 -20 37 17 17 48 11 62
-10z m-1449 2 c-3 -5 -14 -10 -23 -10 -15 0 -15 2 -2 10 20 13 33 13 25 0z
m273 -8 c3 -9 -3 -11 -23 -6 -24 6 -27 5 -20 -15 3 -12 2 -21 -4 -21 -13 0
-24 37 -16 50 9 15 57 8 63 -8z m1084 6 c8 -21 -2 -38 -23 -38 -22 0 -27 35
-6 43 20 9 25 8 29 -5z m-1172 -7 c0 -5 -6 -12 -12 -14 -7 -3 -3 -6 10 -6 24
-1 25 -2 17 -23 -4 -10 -16 -13 -36 -10 -25 4 -29 8 -25 31 2 14 5 27 5 29 3
7 41 1 41 -7z m1017 -8 c-4 -3 -7 0 -7 7 0 7 3 10 7 7 3 -4 3 -10 0 -14z
m-1174 -18 c-23 -10 -53 -12 -110 -7 l-78 7 90 6 c50 3 99 6 110 7 13 1 8 -4
-12 -13z m880 -26 c47 -20 29 -84 -21 -74 -31 6 -42 14 -42 31 0 9 -5 12 -12
8 -8 -5 -9 -2 -5 9 3 9 1 19 -5 23 -7 5 -8 2 -3 -5 6 -10 3 -11 -16 -1 -13 7
-25 14 -27 15 -10 9 108 3 131 -6z m645 -1 c-3 -9 -39 -14 -121 -16 -100 -2
-117 0 -117 13 0 13 19 15 121 15 92 0 120 -3 117 -12z m-1555 -5 c-7 -2 -19
-2 -25 0 -7 3 -2 5 12 5 14 0 19 -2 13 -5z m237 -26 c0 -5 -4 -5 -10 -2 -5 3
-10 14 -10 23 0 15 2 15 10 2 5 -8 10 -19 10 -23z m867 6 c-4 -3 -7 0 -7 7 0
7 3 10 7 7 3 -4 3 -10 0 -14z m-939 -20 c2 -11 -4 -23 -12 -26 -12 -5 -16 1
-16 24 0 35 23 36 28 2z m112 -4 c0 -24 -23 -21 -28 4 -2 10 3 17 12 17 10 0
16 -9 16 -21z m-44 0 c12 -19 -12 -32 -36 -19 -18 10 -20 14 -9 21 19 12 36
11 45 -2z m1139 -9 c0 -9 -11 -16 -27 -18 -27 -3 -38 14 -21 32 12 12 48 2 48
-14z m-1438 -7 c-4 -3 -7 0 -7 7 0 7 3 10 7 7 3 -4 3 -10 0 -14z m100 10 c-4
-3 -10 -3 -14 0 -3 4 0 7 7 7 7 0 10 -3 7 -7z m1401 -16 c3 -12 -4 -17 -22
-17 -32 0 -42 16 -19 29 23 13 37 9 41 -12z m92 8 c0 -11 -11 -15 -40 -15 -29
0 -40 4 -40 15 0 11 11 15 40 15 29 0 40 -4 40 -15z m-369 -18 c-13 -13 -26
-3 -16 12 3 6 11 8 17 5 6 -4 6 -10 -1 -17z m-1151 -14 c-100 -5 -160 -14
-160 -24 0 -5 12 -10 28 -10 l27 -1 -30 -7 c-31 -7 -42 5 -31 35 4 11 27 14
113 12 59 -1 83 -3 53 -5z m1547 -20 c4 -10 -24 -13 -116 -13 -97 0 -121 3
-121 14 0 19 231 18 237 -1z m-342 2 c-25 -8 -115 -11 -115 -4 0 5 28 9 63 8
34 0 58 -2 52 -4z m-478 -279 c36 -21 44 -22 61 -11 10 8 28 11 40 8 17 -4 20
-9 12 -24 -6 -10 -7 -48 -4 -89 5 -45 3 -70 -3 -70 -6 0 -13 -13 -16 -30 l-6
-30 -151 0 -150 0 -6 30 c-4 17 -11 30 -17 30 -6 0 -8 25 -3 70 3 41 2 79 -4
89 -8 15 -5 20 11 24 12 3 30 0 40 -6 16 -10 26 -8 57 10 48 29 87 28 139 -1z"/>
<path d="M793 1253 c4 -3 10 -3 14 0 3 4 0 7 -7 7 -7 0 -10 -3 -7 -7z"/>
<path d="M825 1240 c3 -5 8 -10 11 -10 3 0 2 5 -1 10 -3 6 -8 10 -11 10 -3 0
-2 -4 1 -10z"/>
<path d="M1933 1233 c4 -3 10 -3 14 0 3 4 0 7 -7 7 -7 0 -10 -3 -7 -7z"/>
<path d="M1971 1231 c-9 -6 -10 -11 -2 -15 6 -4 11 -3 11 3 0 5 10 12 23 14
19 4 19 4 2 5 -11 1 -26 -2 -34 -7z"/>
<path d="M2120 1214 c0 -8 5 -12 10 -9 6 4 8 11 5 16 -9 14 -15 11 -15 -7z"/>
<path d="M2240 1216 c0 -2 8 -10 18 -17 15 -13 16 -12 3 4 -13 16 -21 21 -21
13z"/>
<path d="M708 1163 c7 -3 16 -2 19 1 4 3 -2 6 -13 5 -11 0 -14 -3 -6 -6z"/>
<path d="M540 1020 c-2 -30 -3 -60 -3 -67 0 -7 -19 -15 -46 -18 -90 -12 -101
-16 -101 -35 0 -17 6 -18 73 -13 39 3 76 9 80 13 4 4 6 45 4 91 -2 71 -3 75
-7 29z"/>
<path d="M1268 1009 c21 -6 39 -6 50 0 13 8 5 10 -33 10 -48 -1 -49 -1 -17
-10z"/>
<path d="M2373 963 c4 -3 10 -3 14 0 3 4 0 7 -7 7 -7 0 -10 -3 -7 -7z"/>
<path d="M503 953 c4 -3 10 -3 14 0 3 4 0 7 -7 7 -7 0 -10 -3 -7 -7z"/>
<path d="M1053 915 c0 -22 2 -30 4 -17 2 12 2 30 0 40 -3 9 -5 -1 -4 -23z"/>
<path d="M2330 932 c0 -28 4 -29 80 -33 61 -4 65 -3 68 19 3 19 -1 22 -35 22
-21 0 -55 3 -75 6 -34 6 -38 4 -38 -14z"/>
<path d="M1174 918 c-4 -7 -3 -8 4 -4 12 7 16 16 8 16 -3 0 -8 -5 -12 -12z"/>
<path d="M2300 840 c0 -7 3 -10 7 -7 3 4 3 10 0 14 -4 3 -7 0 -7 -7z"/>
<path d="M1495 730 c3 -5 8 -10 11 -10 3 0 2 5 -1 10 -3 6 -8 10 -11 10 -3 0
-2 -4 1 -10z"/>
</g>
</svg>
